<svg xmlns="http://www.w3.org/2000/svg" width="24" height="24" viewBox="0 0 24 24">
  <defs>
    <style>
      .cls-1 {
        fill: #21145f;
      }
    </style>
  </defs>
  <g id="_045-facebook" data-name="045-facebook" transform="translate(0)">
    <g id="Group_3" data-name="Group 3">
      <path id="Path_20" data-name="Path 20" class="cls-1" d="M21,0H3A3,3,0,0,0,0,3V21a3,3,0,0,0,3,3h9V15.75H9V12h3V9a4.5,4.5,0,0,1,4.5-4.5h3V8.25H18c-.828,0-1.5-.078-1.5.75v3h3.75l-1.5,3.75H16.5V24H21a3,3,0,0,0,3-3V3A3,3,0,0,0,21,0Z"/>
    </g>
  </g>
</svg>
