<svg xmlns="http://www.w3.org/2000/svg" width="56" height="56" viewBox="0 0 56 56">
  <defs>
    <style>
      .cls-1 {
        fill: #6bc4e8;
      }

      .cls-2, .cls-4 {
        fill: none;
      }

      .cls-2 {
        stroke: #6bc4e8;
        stroke-width: 3px;
      }

      .cls-3 {
        stroke: none;
      }
    </style>
  </defs>
  <g id="Symbol_12_1" data-name="Symbol 12 – 1" transform="translate(-1638.658 -48)">
    <g id="_013-twitter-1" data-name="013-twitter-1" transform="translate(1651.895 16)">
      <g id="Group_2" data-name="Group 2" transform="translate(0 48)">
        <path id="Path_19" data-name="Path 19" class="cls-1" d="M29.538,50.841a12.626,12.626,0,0,1-3.489.956,6.022,6.022,0,0,0,2.664-3.347,12.1,12.1,0,0,1-3.84,1.466A6.055,6.055,0,0,0,14.4,54.057a6.235,6.235,0,0,0,.14,1.381A17.141,17.141,0,0,1,2.057,49.1,6.057,6.057,0,0,0,3.918,57.2a5.98,5.98,0,0,1-2.736-.746v.066a6.083,6.083,0,0,0,4.852,5.95,6.044,6.044,0,0,1-1.588.2,5.354,5.354,0,0,1-1.146-.1,6.113,6.113,0,0,0,5.658,4.218,12.168,12.168,0,0,1-7.508,2.583A11.343,11.343,0,0,1,0,69.282,17.048,17.048,0,0,0,9.29,72c11.143,0,17.236-9.231,17.236-17.232,0-.268-.009-.526-.022-.783A12.081,12.081,0,0,0,29.538,50.841Z" transform="translate(0 -48)"/>
      </g>
    </g>
    <g id="Ellipse_4" data-name="Ellipse 4" class="cls-2" transform="translate(1638.658 48)">
      <circle class="cls-3" cx="28" cy="28" r="28"/>
      <circle class="cls-4" cx="28" cy="28" r="26.5"/>
    </g>
  </g>
</svg>
